<svg xmlns="http://www.w3.org/2000/svg" viewBox="0 0 1200 1200" preserveAspectRatio="xMidYMid slice" aria-hidden="true"><defs><radialGradient id="b" gradientUnits="userSpaceOnUse" cx="600" cy="520" r="760"><stop offset="0" stop-color="#fdfaf4"/><stop offset="1" stop-color="#e9dfd0"/></radialGradient><linearGradient id="w" gradientUnits="userSpaceOnUse" x1="480" y1="0" x2="720" y2="0"><stop offset="0" stop-color="#fffdf8"/><stop offset="0.3" stop-color="#fffdf8"/><stop offset="1" stop-color="#e3d8c8"/></linearGradient><radialGradient id="g" gradientUnits="userSpaceOnUse" cx="600" cy="455" r="420"><stop offset="0" stop-color="#ffe2a8" stop-opacity="0.5"/><stop offset="0.3" stop-color="#ffe2a8" stop-opacity="0.24"/><stop offset="1" stop-color="#ffe2a8" stop-opacity="0"/></radialGradient><linearGradient id="t" gradientUnits="userSpaceOnUse" x1="0" y1="540" x2="0" y2="930"><stop offset="0" stop-color="#ffe2a8" stop-opacity="0.3"/><stop offset="0.45" stop-color="#ffe2a8" stop-opacity="0"/></linearGradient><radialGradient id="m"><stop offset="0" stop-color="#ffe2a8" stop-opacity=".55"/><stop offset=".7" stop-color="#e3d8c8" stop-opacity=".5"/><stop offset="1" stop-color="#e3d8c8" stop-opacity="0"/></radialGradient><radialGradient id="f"><stop offset="0" stop-color="#fffdf2"/><stop offset=".6" stop-color="#ffe4a0"/><stop offset="1" stop-color="#ffc978" stop-opacity=".3"/></radialGradient><radialGradient id="s"><stop offset="0" stop-color="#4a4036" stop-opacity=".16"/><stop offset="1" stop-color="#4a4036" stop-opacity="0"/></radialGradient></defs><rect width="1200" height="1200" fill="url(#b)"/><radialGradient id="k1"><stop offset="0" stop-color="#ffffff" stop-opacity="0.6"/><stop offset="0.6" stop-color="#ffffff" stop-opacity="0.36"/><stop offset="1" stop-color="#ffffff" stop-opacity="0"/></radialGradient><ellipse transform="rotate(0 600 560)" cx="600" cy="560" rx="520" ry="420" fill="url(#k1)"/><radialGradient id="k2"><stop offset="0" stop-color="#a89c8a" stop-opacity="0.16"/><stop offset="0.6" stop-color="#a89c8a" stop-opacity="0.10"/><stop offset="1" stop-color="#a89c8a" stop-opacity="0"/></radialGradient><ellipse transform="rotate(-35 360 760)" cx="360" cy="760" rx="230" ry="120" fill="url(#k2)"/><radialGradient id="k3"><stop offset="0" stop-color="#a89c8a" stop-opacity="0.1"/><stop offset="0.6" stop-color="#a89c8a" stop-opacity="0.06"/><stop offset="1" stop-color="#a89c8a" stop-opacity="0"/></radialGradient><ellipse transform="rotate(30 870 700)" cx="870" cy="700" rx="120" ry="60" fill="url(#k3)"/><ellipse cx="600" cy="950" rx="290" ry="44" fill="url(#s)"/><circle cx="600" cy="455" r="420" fill="url(#g)"/><path d="M480 540V920a120 26 0 0 0 240 0V540z" fill="url(#w)"/><path d="M480 540V920a120 26 0 0 0 240 0V540z" fill="url(#t)"/><ellipse cx="600" cy="540" rx="120" ry="26" fill="#fffdf8"/><ellipse cx="600" cy="544" rx="86" ry="16" fill="url(#m)"/><path d="M600 540V486" stroke="#4a4036" stroke-width="5" stroke-linecap="round"/><path d="M600 402C618 428 628 444 628 460C628 475 616 484 600 484C584 484 572 475 572 460C572 444 582 428 600 402Z" fill="#ffe2a8" opacity=".8"/><path d="M600 432C610 448 614 458 614 466C614 476 608 481 600 481C592 481 586 476 586 466C586 458 590 448 600 432Z" fill="url(#f)"/><ellipse cx="600" cy="474" rx="7" ry="7" fill="#c6dcff" opacity=".7"/></svg>